# xmcd
# 
# Track frame offsets:
#     150
#     30268
#     55355
#     77175
#     100430
#     119750
#     141228
#     161515
# 
# Disc length: 2489
# 
# Revision: 12
# Processed by: cddbd v1.5.2PL0 Copyright (c) Steve Scherf et al.
# Submitted via: fre:ac v1.0.17
# 
DISCID=6b09b708
DTITLE=The Rippingtons - Moonlighting (GRD-9605)
DYEAR=1986
DGENRE=Fusion
TTITLE0=Moonlighting
TTITLE1=She Likes to Watch
TTITLE2=Angela
TTITLE3=Dreams
TTITLE4=Mirage
TTITLE5=Calypso Cafe
TTITLE6=Open All Night
TTITLE7=Intimate Strangers
EXTD=
EXTT0=
EXTT1=
EXTT2=
EXTT3=
EXTT4=
EXTT5=
EXTT6=
EXTT7=
PLAYORDER=
